<svg width="95" height="95" viewBox="0 0 95 95" fill="none" xmlns="http://www.w3.org/2000/svg">
<path d="M47.5 0C21.3 0 0 21.3 0 47.5C0 73.7 21.3 95 47.5 95C73.7 95 95 73.7 95 47.5C95 21.3 73.7 0 47.5 0ZM47.5 91C23.5 91 4 71.5 4 47.5C4 23.5 23.5 4 47.5 4C71.5 4 91 23.5 91 47.5C91 71.5 71.5 91 47.5 91Z" fill="white"/>
<path d="M67.2999 44.3L39.6999 27.1C37.1999 25.5 33.8999 27.3 33.8999 30.3V64.8C33.8999 67.8 37.1999 69.6 39.6999 68L67.2999 50.8C69.6999 49.2 69.6999 45.8 67.2999 44.3Z" fill="white"/>
</svg>
